<svg xmlns="http://www.w3.org/2000/svg" width="900" height="480">
<style>text{font-family:sans-serif;font-size:12px;fill:#222}</style>
<text x="20" y="26" style="font-size:16px;font-weight:bold">TDMA ring runtime 5-min monitor</text>
<text x="20" y="60" style="font-weight:bold">COM5 (COM5) FAIL</text>
<text x="20" y="76">up_running!=1 ; down_running!=1 ; simultaneous_evidence!=1 (reference board) ; ring_seq==0</text>
<rect x="20" y="90" width="860" height="40" fill="#f4f4f4" stroke="#ccc"/>
<polyline points="20.0,130.0 49.7,130.0 79.3,130.0 109.0,130.0 138.6,130.0 168.3,130.0 197.9,130.0 227.6,130.0 257.2,130.0 286.9,130.0 316.6,130.0 346.2,130.0 375.9,130.0 405.5,130.0 435.2,130.0 464.8,130.0 494.5,130.0 524.1,130.0 553.8,130.0 583.4,130.0 613.1,130.0 642.8,130.0 672.4,130.0 702.1,130.0 731.7,130.0 761.4,130.0 791.0,130.0 820.7,130.0 850.3,130.0 880.0,130.0" fill="none" stroke="#1a7f37" stroke-width="1.5"/>
<text x="886" y="100" fill="#1a7f37">up</text>
<polyline points="20.0,130.0 49.7,130.0 79.3,130.0 109.0,130.0 138.6,130.0 168.3,130.0 197.9,130.0 227.6,130.0 257.2,130.0 286.9,130.0 316.6,130.0 346.2,130.0 375.9,130.0 405.5,130.0 435.2,130.0 464.8,130.0 494.5,130.0 524.1,130.0 553.8,130.0 583.4,130.0 613.1,130.0 642.8,130.0 672.4,130.0 702.1,130.0 731.7,130.0 761.4,130.0 791.0,130.0 820.7,130.0 850.3,130.0 880.0,130.0" fill="none" stroke="#1976d2" stroke-width="1.5"/>
<text x="886" y="100" fill="#1976d2">down</text>
<polyline points="20.0,130.0 49.7,130.0 79.3,130.0 109.0,130.0 138.6,130.0 168.3,130.0 197.9,130.0 227.6,130.0 257.2,130.0 286.9,130.0 316.6,130.0 346.2,130.0 375.9,130.0 405.5,130.0 435.2,130.0 464.8,130.0 494.5,130.0 524.1,130.0 553.8,130.0 583.4,130.0 613.1,130.0 642.8,130.0 672.4,130.0 702.1,130.0 731.7,130.0 761.4,130.0 791.0,130.0 820.7,130.0 850.3,130.0 880.0,130.0" fill="none" stroke="#b8860b" stroke-width="1.5"/>
<text x="886" y="100" fill="#b8860b">evid</text>
<text x="20" y="146">ring_seq=0 reason=EVIDENCE_MISSING beacon_tx=0 beacon_rx=0 round_trip_ns=0 resolution_ns=0</text>
<text x="20" y="150" style="font-weight:bold">COM6 (COM6) FAIL</text>
<text x="20" y="166">up_running!=1 ; down_running!=1 ; simultaneous_evidence!=1 (reference board) ; ring_seq==0</text>
<rect x="20" y="180" width="860" height="40" fill="#f4f4f4" stroke="#ccc"/>
<polyline points="20.0,220.0 49.7,220.0 79.3,220.0 109.0,220.0 138.6,220.0 168.3,220.0 197.9,220.0 227.6,220.0 257.2,220.0 286.9,220.0 316.6,220.0 346.2,220.0 375.9,220.0 405.5,220.0 435.2,220.0 464.8,220.0 494.5,220.0 524.1,220.0 553.8,220.0 583.4,220.0 613.1,220.0 642.8,220.0 672.4,220.0 702.1,220.0 731.7,220.0 761.4,220.0 791.0,220.0 820.7,220.0 850.3,220.0 880.0,220.0" fill="none" stroke="#1a7f37" stroke-width="1.5"/>
<text x="886" y="190" fill="#1a7f37">up</text>
<polyline points="20.0,220.0 49.7,220.0 79.3,220.0 109.0,220.0 138.6,220.0 168.3,220.0 197.9,220.0 227.6,220.0 257.2,220.0 286.9,220.0 316.6,220.0 346.2,220.0 375.9,220.0 405.5,220.0 435.2,220.0 464.8,220.0 494.5,220.0 524.1,220.0 553.8,220.0 583.4,220.0 613.1,220.0 642.8,220.0 672.4,220.0 702.1,220.0 731.7,220.0 761.4,220.0 791.0,220.0 820.7,220.0 850.3,220.0 880.0,220.0" fill="none" stroke="#1976d2" stroke-width="1.5"/>
<text x="886" y="190" fill="#1976d2">down</text>
<polyline points="20.0,220.0 49.7,220.0 79.3,220.0 109.0,220.0 138.6,220.0 168.3,220.0 197.9,220.0 227.6,220.0 257.2,220.0 286.9,220.0 316.6,220.0 346.2,220.0 375.9,220.0 405.5,220.0 435.2,220.0 464.8,220.0 494.5,220.0 524.1,220.0 553.8,220.0 583.4,220.0 613.1,220.0 642.8,220.0 672.4,220.0 702.1,220.0 731.7,220.0 761.4,220.0 791.0,220.0 820.7,220.0 850.3,220.0 880.0,220.0" fill="none" stroke="#b8860b" stroke-width="1.5"/>
<text x="886" y="190" fill="#b8860b">evid</text>
<text x="20" y="236">ring_seq=0 reason=EVIDENCE_MISSING beacon_tx=0 beacon_rx=0 round_trip_ns=0 resolution_ns=0</text>
<text x="20" y="468" style="font-size:10px">duration_s=30.0 tool=tdma_ring_monitor read-only ts=2026-08-17T13:35:04.259+00:00</text>
</svg>
